<svg xmlns="http://www.w3.org/2000/svg" viewBox="0 0 800 1200">
  <style>
    .small { font: bold 14px sans-serif; }
    .medium { font: bold 16px sans-serif; }
    .large { font: bold 18px sans-serif; }
    .box { stroke: black; stroke-width: 2; fill: white; }
    .arrow { stroke: blue; stroke-width: 2; marker-end: url(#arrowhead); }
    .pivot { fill: yellow; }
    .swapped { fill: lightblue; }
    .final { fill: lightgreen; }
    .current { fill: lightsalmon; }
    .pointer { fill: none; stroke: red; stroke-width: 2; }
  </style>
  
  <defs>
    <marker id="arrowhead" markerWidth="10" markerHeight="7" refX="0" refY="3.5" orient="auto">
      <polygon points="0 0, 10 3.5, 0 7" fill="blue"/>
    </marker>
  </defs>

  <text x="10" y="30" class="large">Array awal:</text>
  <rect x="10" y="40" width="50" height="50" class="box"/><text x="25" y="70" class="medium">5</text>
  <rect x="60" y="40" width="50" height="50" class="box"/><text x="75" y="70" class="medium">2</text>
  <rect x="110" y="40" width="50" height="50" class="box"/><text x="125" y="70" class="medium">9</text>
  <rect x="160" y="40" width="50" height="50" class="box"/><text x="175" y="70" class="medium">1</text>
  <rect x="210" y="40" width="50" height="50" class="box"/><text x="225" y="70" class="medium">7</text>
  <rect x="260" y="40" width="50" height="50" class="box"/><text x="275" y="70" class="medium">6</text>
  <rect x="310" y="40" width="50" height="50" class="box pivot"/><text x="325" y="70" class="medium">3</text>

  <text x="10" y="130" class="large">Partisi: Langkah 1 (bandingkan 5 dengan pivot 3)</text>
  <rect x="10" y="140" width="50" height="50" class="box current"/><text x="25" y="170" class="medium">5</text>
  <rect x="60" y="140" width="50" height="50" class="box"/><text x="75" y="170" class="medium">2</text>
  <rect x="110" y="140" width="50" height="50" class="box"/><text x="125" y="170" class="medium">9</text>
  <rect x="160" y="140" width="50" height="50" class="box"/><text x="175" y="170" class="medium">1</text>
  <rect x="210" y="140" width="50" height="50" class="box"/><text x="225" y="170" class="medium">7</text>
  <rect x="260" y="140" width="50" height="50" class="box"/><text x="275" y="170" class="medium">6</text>
  <rect x="310" y="140" width="50" height="50" class="box pivot"/><text x="325" y="170" class="medium">3</text>
  <path d="M 35 200 L 35 190" class="pointer"/>
  <text x="25" y="220" class="small">i,j</text>

  <text x="10" y="250" class="large">Partisi: Langkah 2 (bandingkan 2 dengan pivot 3, tukar dengan i)</text>
  <rect x="10" y="260" width="50" height="50" class="box swapped"/><text x="25" y="290" class="medium">2</text>
  <rect x="60" y="260" width="50" height="50" class="box current"/><text x="75" y="290" class="medium">5</text>
  <rect x="110" y="260" width="50" height="50" class="box"/><text x="125" y="290" class="medium">9</text>
  <rect x="160" y="260" width="50" height="50" class="box"/><text x="175" y="290" class="medium">1</text>
  <rect x="210" y="260" width="50" height="50" class="box"/><text x="225" y="290" class="medium">7</text>
  <rect x="260" y="260" width="50" height="50" class="box"/><text x="275" y="290" class="medium">6</text>
  <rect x="310" y="260" width="50" height="50" class="box pivot"/><text x="325" y="290" class="medium">3</text>
  <path d="M 35 320 L 35 310" class="pointer"/>
  <text x="25" y="340" class="small">i</text>
  <path d="M 85 320 L 85 310" class="pointer"/>
  <text x="75" y="340" class="small">j</text>

  <text x="10" y="370" class="large">Partisi: Langkah 3 (bandingkan 9 dengan pivot 3)</text>
  <rect x="10" y="380" width="50" height="50" class="box swapped"/><text x="25" y="410" class="medium">2</text>
  <rect x="60" y="380" width="50" height="50" class="box"/><text x="75" y="410" class="medium">5</text>
  <rect x="110" y="380" width="50" height="50" class="box current"/><text x="125" y="410" class="medium">9</text>
  <rect x="160" y="380" width="50" height="50" class="box"/><text x="175" y="410" class="medium">1</text>
  <rect x="210" y="380" width="50" height="50" class="box"/><text x="225" y="410" class="medium">7</text>
  <rect x="260" y="380" width="50" height="50" class="box"/><text x="275" y="410" class="medium">6</text>
  <rect x="310" y="380" width="50" height="50" class="box pivot"/><text x="325" y="410" class="medium">3</text>
  <path d="M 35 440 L 35 430" class="pointer"/>
  <text x="25" y="460" class="small">i</text>
  <path d="M 135 440 L 135 430" class="pointer"/>
  <text x="125" y="460" class="small">j</text>

  <text x="10" y="490" class="large">Partisi: Langkah 4 (bandingkan 1 dengan pivot 3, tukar dengan i+1)</text>
  <rect x="10" y="500" width="50" height="50" class="box swapped"/><text x="25" y="530" class="medium">2</text>
  <rect x="60" y="500" width="50" height="50" class="box swapped"/><text x="75" y="530" class="medium">1</text>
  <rect x="110" y="500" width="50" height="50" class="box"/><text x="125" y="530" class="medium">9</text>
  <rect x="160" y="500" width="50" height="50" class="box current"/><text x="175" y="530" class="medium">5</text>
  <rect x="210" y="500" width="50" height="50" class="box"/><text x="225" y="530" class="medium">7</text>
  <rect x="260" y="500" width="50" height="50" class="box"/><text x="275" y="530" class="medium">6</text>
  <rect x="310" y="500" width="50" height="50" class="box pivot"/><text x="325" y="530" class="medium">3</text>
  <path d="M 85 560 L 85 550" class="pointer"/>
  <text x="75" y="580" class="small">i</text>
  <path d="M 185 560 L 185 550" class="pointer"/>
  <text x="175" y="580" class="small">j</text>

  <text x="10" y="610" class="large">Setelah partisi, tukar pivot dengan i+1:</text>
  <rect x="10" y="620" width="50" height="50" class="box final"/><text x="25" y="650" class="medium">2</text>
  <rect x="60" y="620" width="50" height="50" class="box final"/><text x="75" y="650" class="medium">1</text>
  <rect x="110" y="620" width="50" height="50" class="box pivot"/><text x="125" y="650" class="medium">3</text>
  <rect x="160" y="620" width="50" height="50" class="box"/><text x="175" y="650" class="medium">5</text>
  <rect x="210" y="620" width="50" height="50" class="box"/><text x="225" y="650" class="medium">7</text>
  <rect x="260" y="620" width="50" height="50" class="box"/><text x="275" y="650" class="medium">6</text>
  <rect x="310" y="620" width="50" height="50" class="box"/><text x="325" y="650" class="medium">9</text>

    <text x="10" y="710" class="large">Rekursif: Quicksort pada sub-array kiri [2, 1]</text>
  <rect x="10" y="720" width="50" height="50" class="box current"/><text x="25" y="750" class="medium">2</text>
  <rect x="60" y="720" width="50" height="50" class="box pivot"/><text x="75" y="750" class="medium">1</text>
  <rect x="110" y="720" width="50" height="50" class="box"/><text x="125" y="750" class="medium">3</text>
  <rect x="160" y="720" width="50" height="50" class="box"/><text x="175" y="750" class="medium">5</text>
  <rect x="210" y="720" width="50" height="50" class="box"/><text x="225" y="750" class="medium">7</text>
  <rect x="260" y="720" width="50" height="50" class="box"/><text x="275" y="750" class="medium">6</text>
  <rect x="310" y="720" width="50" height="50" class="box"/><text x="325" y="750" class="medium">9</text>

  <text x="10" y="810" class="large">Setelah partisi sub-array kiri</text>
  <rect x="10" y="820" width="50" height="50" class="box pivot"/><text x="25" y="850" class="medium">1</text>
  <rect x="60" y="820" width="50" height="50" class="box"/><text x="75" y="850" class="medium">2</text>
  <rect x="110" y="820" width="50" height="50" class="box"/><text x="125" y="850" class="medium">3</text>
  <rect x="160" y="820" width="50" height="50" class="box"/><text x="175" y="850" class="medium">5</text>
  <rect x="210" y="820" width="50" height="50" class="box"/><text x="225" y="850" class="medium">7</text>
  <rect x="260" y="820" width="50" height="50" class="box"/><text x="275" y="850" class="medium">6</text>
  <rect x="310" y="820" width="50" height="50" class="box"/><text x="325" y="850" class="medium">9</text>

  <text x="10" y="910" class="large">Rekursif: Quicksort pada sub-array kanan [5, 7, 6, 9]</text>
  <rect x="10" y="920" width="50" height="50" class="box final"/><text x="25" y="950" class="medium">1</text>
  <rect x="60" y="920" width="50" height="50" class="box final"/><text x="75" y="950" class="medium">2</text>
  <rect x="110" y="920" width="50" height="50" class="box final"/><text x="125" y="950" class="medium">3</text>
  <rect x="160" y="920" width="50" height="50" class="box current"/><text x="175" y="950" class="medium">5</text>
  <rect x="210" y="920" width="50" height="50" class="box"/><text x="225" y="950" class="medium">7</text>
  <rect x="260" y="920" width="50" height="50" class="box"/><text x="275" y="950" class="medium">6</text>
  <rect x="310" y="920" width="50" height="50" class="box pivot"/><text x="325" y="950" class="medium">9</text>

  <text x="10" y="1010" class="large">Setelah partisi sub-array kanan</text>
  <rect x="10" y="1020" width="50" height="50" class="box final"/><text x="25" y="1050" class="medium">1</text>
  <rect x="60" y="1020" width="50" height="50" class="box final"/><text x="75" y="1050" class="medium">2</text>
  <rect x="110" y="1020" width="50" height="50" class="box final"/><text x="125" y="1050" class="medium">3</text>
  <rect x="160" y="1020" width="50" height="50" class="box final"/><text x="175" y="1050" class="medium">5</text>
  <rect x="260" y="1020" width="50" height="50" class="box"/><text x="275" y="1050" class="medium">7</text>
  <rect x="210" y="1020" width="50" height="50" class="box"/><text x="225" y="1050" class="medium">6</text>
  <rect x="310" y="1020" width="50" height="50" class="box pivot"/><text x="325" y="1050" class="medium">9</text>

  <text x="10" y="1110" class="large">Array akhir setelah quicksort selesai</text>
  <rect x="10" y="1120" width="50" height="50" class="box final"/><text x="25" y="1150" class="medium">1</text>
  <rect x="60" y="1120" width="50" height="50" class="box final"/><text x="75" y="1150" class="medium">2</text>
  <rect x="110" y="1120" width="50" height="50" class="box final"/><text x="125" y="1150" class="medium">3</text>
  <rect x="160" y="1120" width="50" height="50" class="box final"/><text x="175" y="1150" class="medium">5</text>
  <rect x="210" y="1120" width="50" height="50" class="box final"/><text x="225" y="1150" class="medium">6</text>
  <rect x="260" y="1120" width="50" height="50" class="box final"/><text x="275" y="1150" class="medium">7</text>
  <rect x="310" y="1120" width="50" height="50" class="box final"/><text x="325" y="1150" class="medium">9</text>
</svg>